<svg xmlns="http://www.w3.org/2000/svg" width="843.564" height="176" viewBox="0 0 843.564 176">
  <g id="Group_68" data-name="Group 68" transform="translate(-94 -100)">
    <g id="Group_61" data-name="Group 61" transform="translate(-773 -352)">
      <path id="Path_3" data-name="Path 3" d="M114.6,1156.717a12.38,12.38,0,0,1-22.056-7.784,10.736,10.736,0,0,1,2.6-7.521l63.054-84.856a34.414,34.414,0,0,1,27.246-13.493,33.7,33.7,0,0,1,14.791,3.374,30.291,30.291,0,0,1,11.417,9.341L274.7,1140.11a17.953,17.953,0,0,1,2.6,4.022,11.187,11.187,0,0,1,1.037,4.8,12.4,12.4,0,0,1-12.455,12.455,11.607,11.607,0,0,1-9.86-4.926l-60.46-80.7a56.749,56.749,0,0,0-4.541-4.541,7.554,7.554,0,0,0-11.158,0,33.532,33.532,0,0,0-4.281,4.541Z" transform="translate(774.453 -562.063)" fill="#1f2127" fill-rule="evenodd"/>
      <path id="Path_4" data-name="Path 4" d="M169.354,1133.364a15.948,15.948,0,1,1,4.671,11.418,15.533,15.533,0,0,1-4.671-11.418" transform="translate(774.453 -562.063)" fill="#1f2127" fill-rule="evenodd"/>
    </g>
    <path id="Path_13" data-name="Path 13" d="M39.514,0,35.632-12.744H16.113L12.231,0H0L18.9-53.76H32.776L51.746,0ZM32.922-22.266q-5.383-17.322-6.061-19.592t-.97-3.589q-1.208,4.688-6.921,23.181ZM85.859,0l-1.5-5.237h-.586a11.784,11.784,0,0,1-5.09,4.413A17.379,17.379,0,0,1,71.174.732Q63.959.732,60.3-3.131T56.635-14.246v-26.7H67.8v23.914q0,4.431,1.575,6.647A5.729,5.729,0,0,0,74.4-8.167q4.688,0,6.775-3.131T83.259-21.68V-40.942H94.428V0Zm55.17-40.942v5.676l-6.409,1.648a11.172,11.172,0,0,1,1.758,6.152q0,6.592-4.6,10.272t-12.762,3.68l-2.014-.11-1.648-.183a3.714,3.714,0,0,0-1.721,2.93q0,2.417,6.152,2.417h6.958q6.738,0,10.272,2.893t3.534,8.5a12.6,12.6,0,0,1-5.988,11.133q-5.988,3.955-17.194,3.955-8.569,0-13.092-2.985a9.477,9.477,0,0,1-4.523-8.368A8.76,8.76,0,0,1,102.064.476a13.1,13.1,0,0,1,6.775-3.552,7.475,7.475,0,0,1-3-2.4,5.7,5.7,0,0,1-1.282-3.534,5.726,5.726,0,0,1,1.355-3.9,15.666,15.666,0,0,1,3.918-3.058,10.989,10.989,0,0,1-5.109-4.468,13.6,13.6,0,0,1-1.886-7.251q0-6.7,4.358-10.364t12.451-3.662a31.868,31.868,0,0,1,4.083.311q2.362.311,3.021.458Zm-31.6,46.729a4.048,4.048,0,0,0,2.216,3.625,12.191,12.191,0,0,0,6.207,1.318q6.006,0,9.412-1.648t3.406-4.5a3.189,3.189,0,0,0-2.014-3.186,16.494,16.494,0,0,0-6.226-.879H116.64a8.762,8.762,0,0,0-5.145,1.447A4.461,4.461,0,0,0,109.425,5.786Zm4.065-33.325a8.336,8.336,0,0,0,1.52,5.273,5.52,5.52,0,0,0,4.633,1.941,5.406,5.406,0,0,0,4.614-1.941,8.559,8.559,0,0,0,1.465-5.273q0-7.4-6.079-7.4Q113.49-34.937,113.49-27.539ZM176.021,0l-1.5-5.237h-.586a11.784,11.784,0,0,1-5.09,4.413A17.379,17.379,0,0,1,161.336.732q-7.214,0-10.876-3.864T146.8-14.246v-26.7h11.169v23.914q0,4.431,1.575,6.647a5.729,5.729,0,0,0,5.017,2.216q4.688,0,6.775-3.131t2.087-10.382V-40.942h11.169V0Zm48.1-12.158q0,6.3-4.376,9.595T206.656.732a41.12,41.12,0,0,1-7.617-.6,28.812,28.812,0,0,1-5.9-1.776v-9.229a38.937,38.937,0,0,0,7.013,2.454,28.4,28.4,0,0,0,6.866.989q6.079,0,6.079-3.516a2.934,2.934,0,0,0-.806-2.142,11.681,11.681,0,0,0-2.783-1.868Q207.535-16,204.239-17.4a33.127,33.127,0,0,1-6.94-3.662,10.308,10.308,0,0,1-3.223-3.864,12.753,12.753,0,0,1-1.007-5.365,9.726,9.726,0,0,1,4.23-8.441q4.23-2.985,11.993-2.985a34.043,34.043,0,0,1,14.392,3.223l-3.369,8.057q-3.076-1.318-5.75-2.161a18.055,18.055,0,0,0-5.457-.842q-4.944,0-4.944,2.673a3.143,3.143,0,0,0,1.593,2.6,43.322,43.322,0,0,0,6.976,3.259,32.41,32.41,0,0,1,7.031,3.625,10.723,10.723,0,0,1,3.3,3.882A11.929,11.929,0,0,1,224.124-12.158Zm25.214,3.992a24.212,24.212,0,0,0,7.031-1.282v8.313A25.07,25.07,0,0,1,246.116.732q-6.7,0-9.76-3.387T233.3-12.817V-32.556h-5.347V-37.28l6.152-3.735,3.223-8.643h7.141v8.716H255.93v8.386H244.468v19.739A4.36,4.36,0,0,0,245.8-9.3,5.274,5.274,0,0,0,249.338-8.167ZM289.9,0l-2.161-5.566h-.293a16.5,16.5,0,0,1-5.8,4.926A18.758,18.758,0,0,1,273.857.732q-5.9,0-9.283-3.369t-3.387-9.595q0-6.519,4.559-9.613T279.5-25.269l7.1-.22v-1.794q0-6.226-6.372-6.226-4.907,0-11.536,2.966l-3.7-7.544a33.284,33.284,0,0,1,15.674-3.7q8.24,0,12.634,3.589T297.7-27.283V0Zm-3.3-18.97-4.321.146q-4.871.146-7.251,1.758a5.521,5.521,0,0,0-2.38,4.907q0,4.724,5.42,4.724a8.584,8.584,0,0,0,6.207-2.234A7.846,7.846,0,0,0,286.6-15.6ZM371.93,0H360.614V-23.108h-21.2V0H328.058V-53.54H339.41v20.984h21.2V-53.54H371.93Zm11.408-51.526q0-5.457,6.079-5.457t6.079,5.457a5.32,5.32,0,0,1-1.52,4.047,6.388,6.388,0,0,1-4.559,1.447Q383.338-46.033,383.338-51.526ZM394.983,0H383.814V-40.942h11.169Zm32.5,0H416.133V-44.092H401.594V-53.54h40.43v9.448H427.485Zm32.868-33.765a7.085,7.085,0,0,0-5.566,2.252,10.424,10.424,0,0,0-2.307,6.39h15.674a9.311,9.311,0,0,0-2.161-6.39A7.316,7.316,0,0,0,460.354-33.765Zm1.575,34.5q-9.888,0-15.454-5.457t-5.566-15.454q0-10.291,5.145-15.912t14.227-5.621q8.679,0,13.513,4.944t4.834,13.66v5.42h-26.4a10.751,10.751,0,0,0,2.82,7.434q2.637,2.673,7.4,2.673a30.709,30.709,0,0,0,6.995-.769A35,35,0,0,0,476.32-10.8v8.643A26.227,26.227,0,0,1,470.058.018,39.483,39.483,0,0,1,461.928.732Zm41.657,0q-19.116,0-19.116-20.984,0-10.437,5.2-15.948t14.9-5.511a28.415,28.415,0,0,1,12.744,2.783l-3.3,8.643q-2.637-1.062-4.907-1.74a15.811,15.811,0,0,0-4.541-.677q-8.716,0-8.716,12.378,0,12.012,8.716,12.012a19.872,19.872,0,0,0,5.969-.861,21.553,21.553,0,0,0,5.493-2.692v9.558a18,18,0,0,1-5.475,2.38A30.788,30.788,0,0,1,503.585.732ZM562.564,0H551.4V-23.914q0-8.862-6.592-8.862-4.687,0-6.775,3.186t-2.087,10.327V0H524.771V-56.982h11.169v11.609q0,1.355-.256,6.372l-.256,3.3h.586q3.735-6.006,11.865-6.006,7.214,0,10.95,3.882T562.564-26.7Z" transform="translate(375 217)" fill="#1f2127"/>
    <rect id="Rectangle_31" data-name="Rectangle 31" width="4" height="176" transform="translate(326 100)" fill="#1f2127"/>
  </g>
</svg>
